<?xml version="1.0" encoding="UTF-8"?>
<svg id="Layer_1" data-name="Layer 1" xmlns="http://www.w3.org/2000/svg" version="1.1" viewBox="0 0 21 19.5">
  <defs>
    <style>
      .cls-1 {
        fill: #f7931e;
        stroke-width: 0px;
      }

      .cls-2 {
        fill: none;
        stroke: #000;
        stroke-linecap: round;
        stroke-linejoin: round;
        stroke-width: 1.5px;
      }
    </style>
  </defs>
  <path class="cls-1" d="M.8,10.5c0,1.6,1.1,3,2.7,3.2,1.1.2,2.2.3,3.3.4v4.6l4.2-4.2c.2-.2.5-.3.8-.3,2,0,3.9-.2,5.8-.5,1.6-.2,2.7-1.6,2.7-3.2v-6c0-1.6-1.1-3-2.7-3.2-2.3-.3-4.7-.5-7-.5-2.4,0-4.7.2-7,.5-1.6.2-2.7,1.6-2.7,3.2v6h0Z"/>
  <path class="cls-2" d="M.8,10.5c0,1.6,1.1,3,2.7,3.2,1.1.2,2.2.3,3.3.4v4.6l4.2-4.2c.2-.2.5-.3.8-.3,2,0,3.9-.2,5.8-.5,1.6-.2,2.7-1.6,2.7-3.2v-6c0-1.6-1.1-3-2.7-3.2-2.3-.3-4.7-.5-7-.5-2.4,0-4.7.2-7,.5-1.6.2-2.7,1.6-2.7,3.2v6h0Z"/>
  <path class="cls-2" d="M10.5,4.8v3.8M10.5,11.5h0s0,0,0,0h0Z"/>
</svg>